<?xml version="1.0" encoding="UTF-8"?><svg xmlns="http://www.w3.org/2000/svg" xmlns:xlink="http://www.w3.org/1999/xlink" height="44.3" preserveAspectRatio="xMidYMid meet" version="1.0" viewBox="0.0 0.0 39.6 44.3" width="39.6" zoomAndPan="magnify"><g data-name="Layer 2"><g data-name="Layer 1" id="change1_1"><path d="M37.62,44.31a2,2,0,0,1-1.36-.54L19.44,27.94,3.37,43.55A2,2,0,0,1,0,42.13V2A2,2,0,0,1,2,0H37.62a2,2,0,0,1,2,2V42.32a2,2,0,0,1-1.2,1.83A2,2,0,0,1,37.62,44.31ZM19.42,23.2a2,2,0,0,1,1.36.54l14.86,14V4H4V37.43L18,23.76A2,2,0,0,1,19.42,23.2Z" fill="#231f20"/></g></g></svg>